REM DIRINDEX 1\2,1\3,1\4,1\5
REM DIRNAME "folder01","folder02","folder03","folder04","folder05"
TITLE ""
FILE "P1Q_t_1139-1148.mp3" MP3
  TRACK 01 AUDIO
    TITLE "3:cjc173_4378"
    INDEX 01 00:00:00
  TRACK 02 AUDIO
    TITLE "0:"
    INDEX 01 00:01:43
  TRACK 03 AUDIO
    TITLE "4:cjc173_4379"
    INDEX 01 00:01:67
  TRACK 04 AUDIO
    TITLE "0:"
    INDEX 01 00:05:64
  TRACK 05 AUDIO
    TITLE "5:cjc173_4380"
    INDEX 01 00:06:09
  TRACK 06 AUDIO
    TITLE "0:"
    INDEX 01 00:10:42
  TRACK 07 AUDIO
    TITLE "3:cjc173_4381"
    INDEX 01 00:11:16
  TRACK 08 AUDIO
    TITLE "0:"
    INDEX 01 00:12:43
  TRACK 09 AUDIO
    TITLE "4:cjc173_4382"
    INDEX 01 00:12:64
  TRACK 10 AUDIO
    TITLE "0:"
    INDEX 01 00:15:12
  TRACK 11 AUDIO
    TITLE "5:cjc173_4383"
    INDEX 01 00:15:31
  TRACK 12 AUDIO
    TITLE "0:"
    INDEX 01 00:19:63
  TRACK 13 AUDIO
    TITLE "3:cjc173_4384"
    INDEX 01 00:20:33
  TRACK 14 AUDIO
    TITLE "0:"
    INDEX 01 00:21:36
  TRACK 15 AUDIO
    TITLE "4:cjc173_4385"
    INDEX 01 00:21:58
  TRACK 16 AUDIO
    TITLE "0:"
    INDEX 01 00:25:61
  TRACK 17 AUDIO
    TITLE "5:cjc173_4386"
    INDEX 01 00:26:08
  TRACK 18 AUDIO
    TITLE "0:"
    INDEX 01 00:31:28
  TRACK 19 AUDIO
    TITLE "3:cjc173_4387"
    INDEX 01 00:32:01
  TRACK 20 AUDIO
    TITLE "0:"
    INDEX 01 00:33:12
  TRACK 21 AUDIO
    TITLE "4:cjc173_4388"
    INDEX 01 00:33:35
  TRACK 22 AUDIO
    TITLE "0:"
    INDEX 01 00:36:37
  TRACK 23 AUDIO
    TITLE "5:cjc173_4389"
    INDEX 01 00:36:57
  TRACK 24 AUDIO
    TITLE "0:"
    INDEX 01 00:40:35
  TRACK 25 AUDIO
    TITLE "3:cjc173_4390"
    INDEX 01 00:41:07
  TRACK 26 AUDIO
    TITLE "0:"
    INDEX 01 00:42:20
  TRACK 27 AUDIO
    TITLE "4:cjc173_4391"
    INDEX 01 00:42:42
  TRACK 28 AUDIO
    TITLE "0:"
    INDEX 01 00:47:61
  TRACK 29 AUDIO
    TITLE "5:cjc173_4392"
    INDEX 01 00:48:05
  TRACK 30 AUDIO
    TITLE "0:"
    INDEX 01 00:52:56
  TRACK 31 AUDIO
    TITLE "3:cjc173_4393"
    INDEX 01 00:53:28
  TRACK 32 AUDIO
    TITLE "0:"
    INDEX 01 00:54:49
  TRACK 33 AUDIO
    TITLE "4:cjc173_4394"
    INDEX 01 00:54:73
  TRACK 34 AUDIO
    TITLE "0:"
    INDEX 01 00:57:40
  TRACK 35 AUDIO
    TITLE "5:cjc173_4395"
    INDEX 01 00:57:59
  TRACK 36 AUDIO
    TITLE "0:"
    INDEX 01 01:02:09
  TRACK 37 AUDIO
    TITLE "3:cjc173_4396"
    INDEX 01 01:02:58
  TRACK 38 AUDIO
    TITLE "0:"
    INDEX 01 01:04:02
  TRACK 39 AUDIO
    TITLE "4:cjc173_4397"
    INDEX 01 01:04:22
  TRACK 40 AUDIO
    TITLE "0:"
    INDEX 01 01:07:03
  TRACK 41 AUDIO
    TITLE "5:cjc173_4398"
    INDEX 01 01:07:22
  TRACK 42 AUDIO
    TITLE "0:"
    INDEX 01 01:11:22
  TRACK 43 AUDIO
    TITLE "3:cjc173_4399"
    INDEX 01 01:11:69
  TRACK 44 AUDIO
    TITLE "0:"
    INDEX 01 01:13:07
  TRACK 45 AUDIO
    TITLE "4:cjc173_4400"
    INDEX 01 01:13:29
  TRACK 46 AUDIO
    TITLE "0:"
    INDEX 01 01:14:36
  TRACK 47 AUDIO
    TITLE "5:cjc173_4401"
    INDEX 01 01:14:56
  TRACK 48 AUDIO
    TITLE "0:"
    INDEX 01 01:18:48
  TRACK 49 AUDIO
    TITLE "3:cjc173_4402"
    INDEX 01 01:19:18
  TRACK 50 AUDIO
    TITLE "0:"
    INDEX 01 01:20:25
  TRACK 51 AUDIO
    TITLE "4:cjc173_4403"
    INDEX 01 01:20:45
  TRACK 52 AUDIO
    TITLE "0:"
    INDEX 01 01:22:61
  TRACK 53 AUDIO
    TITLE "5:cjc173_4404"
    INDEX 01 01:23:06
  TRACK 54 AUDIO
    TITLE "0:"
    INDEX 01 01:27:43
  TRACK 55 AUDIO
    TITLE "3:cjc173_4405"
    INDEX 01 01:28:13
  TRACK 56 AUDIO
    TITLE "0:"
    INDEX 01 01:29:18
  TRACK 57 AUDIO
    TITLE "4:cjc173_4406"
    INDEX 01 01:29:38
  TRACK 58 AUDIO
    TITLE "0:"
    INDEX 01 01:32:05
  TRACK 59 AUDIO
    TITLE "5:cjc173_4407"
    INDEX 01 01:32:24
  TRACK 60 AUDIO
    TITLE "0:"
    INDEX 01 01:35:66
